<svg xmlns="http://www.w3.org/2000/svg" width="16.931" height="16.931"><path d="M10.659 1.029a6.491 6.491 0 011.016 1.493c.04.08.08.161.119.243a7.552 7.552 0 001.064-.664 7.738 7.738 0 00-2.2-1.072zm4.6 11.081a10.773 10.773 0 01-2.379 1.3q-.437.173-.9.312-.147.36-.313.688a6.489 6.489 0 01-1.016 1.493 7.792 7.792 0 004.6-3.792zm-4.235 1.86a12.449 12.449 0 01-2.241.271v1.952a3.69 3.69 0 002.2-2.132zm-3.018.271a12.452 12.452 0 01-2.241-.271l.045.09a3.691 3.691 0 002.2 2.132zm-3.2-.519q-.458-.139-.9-.312a10.773 10.773 0 01-2.379-1.3 7.792 7.792 0 004.6 3.792 6.489 6.489 0 01-1.016-1.493q-.155-.327-.301-.688zm.583-.641a11.6 11.6 0 002.618.383v-2.518a12.083 12.083 0 01-3.247-.544 12.463 12.463 0 00.632 2.678zm6.926-.287q.141-.051.28-.106a9.586 9.586 0 003.284-2.123 7.78 7.78 0 00.287-2.1q0-.228-.013-.452a10.273 10.273 0 01-3.085 2.006l-.222.092a14.014 14.014 0 01-.527 2.682zM.758 7.028a9.275 9.275 0 003.123 2.216q-.018-.384-.018-.778a16.266 16.266 0 01.094-1.756 9.738 9.738 0 01-2.54-1.666 7.707 7.707 0 00-.656 1.983zm3.919 2.53a11.246 11.246 0 003.33.611V7.65a10.768 10.768 0 01-3.3-.634 15.56 15.56 0 00-.026 2.541zm4.107.611a11.246 11.246 0 003.33-.611 15.85 15.85 0 00-.029-2.542 10.772 10.772 0 01-3.3.634zm4.126-.925a9.278 9.278 0 003.123-2.216 7.719 7.719 0 00-.66-1.984 9.737 9.737 0 01-2.54 1.666 16.27 16.27 0 01.094 1.756q.005.392-.017.777zm-11.1-4.9a8.884 8.884 0 002.26 1.559 12.787 12.787 0 01.633-2.423 8.353 8.353 0 01-1.394-.888q-.209.181-.4.377A7.8 7.8 0 001.81 4.346zM8.788 6.87a9.972 9.972 0 003.205-.648 12.164 12.164 0 00-.606-2.425l-.147.056a8.162 8.162 0 01-2.452.5zM3.941 2.099a7.566 7.566 0 001.064.664q.058-.124.119-.243A6.491 6.491 0 016.14 1.027a7.737 7.737 0 00-2.2 1.074zm1.771.982l.114.043a7.4 7.4 0 002.184.446V.734a3.691 3.691 0 00-2.2 2.136 6.66 6.66 0 01-.1.213zm3.076.492a7.4 7.4 0 002.185-.448l.115-.043c-.034-.072-.069-.143-.1-.212a3.691 3.691 0 00-2.2-2.132zM8.466-.001A8.465 8.465 0 11.001 8.464 8.465 8.465 0 018.465 0z" fill="#fff" fill-rule="evenodd"/></svg>