<svg xmlns="http://www.w3.org/2000/svg" viewBox="0 0 485 485"><path d="M71.026 413.974C25.225 368.171 0 307.274 0 242.5c0-64.774 25.225-125.671 71.026-171.474C116.829 25.225 177.726 0 242.5 0c64.774 0 125.671 25.225 171.474 71.026C459.775 116.829 485 177.726 485 242.5c0 64.774-25.225 125.671-71.026 171.474C368.171 459.775 307.274 485 242.5 485c-64.774 0-125.671-25.225-171.474-71.026zM455 242.5C455 125.327 359.673 30 242.5 30S30 125.327 30 242.5 125.327 455 242.5 455 455 359.673 455 242.5z"/><path d="M349.411 193.228l21.178 21.248L242.5 342.148 114.411 214.476l21.178-21.248L242.5 299.791z"/></svg>