<svg xmlns="http://www.w3.org/2000/svg" viewBox="0 0 485 485"><path d="M71.026 71.026C116.829 25.225 177.726 0 242.5 0c64.774 0 125.671 25.225 171.474 71.026C459.775 116.829 485 177.726 485 242.5c0 64.774-25.225 125.671-71.026 171.474C368.171 459.775 307.274 485 242.5 485c-64.774 0-125.671-25.225-171.474-71.026C25.225 368.171 0 307.274 0 242.5c0-64.774 25.225-125.671 71.026-171.474zM242.5 455C359.673 455 455 359.673 455 242.5S359.673 30 242.5 30 30 125.327 30 242.5 125.327 455 242.5 455z"/><path d="M185.209 242.5l106.563 106.911-21.248 21.178L142.852 242.5l127.672-128.089 21.248 21.178z"/></svg>