<svg xmlns="http://www.w3.org/2000/svg" width="115.634" height="90.348"><g data-name="Group 11640"><path data-name="Path 62653" d="M19.463 34.35c-4.349 1.537-8.488 1.804-10.801.695a3.589 3.589 0 01-1.94-2.037 3.77 3.77 0 01.535-3.357c1.192-1.907 3.839-3.796 7.214-5.188-3.949-2.913-6.941-6.828-5.182-9.642s6.554-1.847 10.89.409c-.247-3.648.281-6.854 1.473-8.762a3.76 3.76 0 012.746-1.94c3.757-.453 6.188 5.295 6.856 10.827a17.672 17.672 0 01-2.065 9.96l6.683 4.177a13.908 13.908 0 0118.231-2.975c.139.102 14.037 10.416 27.318 21.297 27.941 22.887 26.057 25.901 24.933 27.7s-3.007 4.811-35.824-10.274c-15.6-7.17-30.96-15.143-31.23-15.288a13.875 13.875 0 01-5.194-17.634l-6.68-4.175a17.632 17.632 0 01-7.963 6.207z" fill="#3a3939"/><path data-name="Path 62654" d="M41.695 47.504a742.708 742.708 0 0018.123 9.107l4.69-7.504a1.665 1.665 0 012.824 1.765l-4.497 7.195a563.31 563.31 0 0015.62 7.22l3.355-5.366a1.665 1.665 0 012.823 1.765l-3.093 4.95c11.455 4.951 20.15 8.016 22.606 7.471-.741-3.08-10.966-12.555-24.517-23.665l-4.963 7.94a1.665 1.665 0 01-2.824-1.765l5.184-8.294a709.123 709.123 0 00-13.485-10.637l-6.176 9.882a1.665 1.665 0 01-2.824-1.764l6.343-10.15q-2.759-2.104-5.538-4.184a1.459 1.459 0 01-.076.204L47.866 43.52a1.665 1.665 0 01-2.823-1.765l7.402-11.844a1.631 1.631 0 01.31-.327 10.531 10.531 0 00-11.06 17.92z" fill="#e26d1e" stroke="#3a3939" stroke-linejoin="round" stroke-width="1.169"/><path data-name="Path 62655" d="M24.82 7.833a1.11 1.11 0 00-.351.402c-.761 1.218-1.32 4.178-.854 8.047a10.8 10.8 0 00.409 1.877 1.666 1.666 0 01-2.645 1.779 10.717 10.717 0 00-1.128-.823c-4.453-2.783-7.685-2.916-8.131-2.546-.17.612 1.367 3.46 5.82 6.244a10.682 10.682 0 001.27.665 1.665 1.665 0 01-.419 3.158 10.946 10.946 0 00-1.89.47c-3.657 1.292-6.065 3.1-6.826 4.318a2.162 2.162 0 00-.225.466c.404.51 3.578 1.066 8.502-.675 3.795-1.342 6.277-4.806 6.949-5.834a1.6 1.6 0 01.306-.348 1.621 1.621 0 01.18-.432c.631-1.055 2.641-4.825 2.156-8.84-.63-5.216-2.556-7.814-3.124-7.928z" fill="#6caf1e" stroke="#3a3939" stroke-linecap="round" stroke-linejoin="round" stroke-width="1.5"/></g></svg>