<svg xmlns="http://www.w3.org/2000/svg" width="80.63" height="88.581"><g data-name="Group 11834" stroke="#3a3939" stroke-linecap="round" stroke-linejoin="round" stroke-width="3.5"><path data-name="Path 62897" d="M75.469 35.006c-12.78-18.116-26.24-9.493-35.137-5.227-8.9-4.266-22.353-12.889-35.138 5.228-13.187 18.689 14.619 66.6 34.933 47.259 20.317 19.341 48.531-28.571 35.342-47.26z" fill="#d12600"/><path data-name="Path 62898" d="M41.521 18.392s-.374-5.219-7.9-8.306c-.738-.3-5.042-2.445-5.042-2.445a7.974 7.974 0 003.332 8.649c3.406 2.446 6.365 3.191 9.61 2.102z" fill="#6caf1e"/><path data-name="Path 62899" d="M57.25 31.279s11.3.2 12.97 10.393" fill="none"/><path data-name="Path 62900" d="M48.587 2.071c.536-1.787 6.551 4.476 6.551 4.476S41.521 18.392 41.957 28.983l-3.466-.172s.928-9.651 3.594-13.936 4.582-6.402 6.502-12.804z" fill="#93603e"/></g></svg>