<svg xmlns="http://www.w3.org/2000/svg" width="80.345" height="58.764"><defs><style>.a{fill:#46af46}.b{fill:#3f893f}</style></defs><path class="a" d="M38.651 21.754l1.5-1.186-2.121-2.121-1.384 1.188 2.121 2.121c3.81-3.405 7.733-7.988 9.8-12.7.768-1.751-1.816-3.28-2.59-1.514-1.978 4.516-5.666 8.817-9.326 12.089-1.45 1.295.668 3.369 2.121 2.121l1.384-1.188c1.487-1.276-.638-3.293-2.121-2.121l-1.5 1.186c-1.514 1.2.622 3.306 2.121 2.121z"/><path class="a" d="M49.346 5.3l-.5-.8a1.526 1.526 0 00-2.356-.3c-2.061 1.722-3.277 4.944-4.962 7.064a102.864 102.864 0 01-6.976 7.979 54.887 54.887 0 01-8.308 7.109c-2.316 1.571-5.173 2.583-7.1 4.641-.795.849-.316 2.73 1.06 2.561 3.279-.4 6.324-2.181 9.025-4.026 3.164-2.162 6-6.807 9.549-8.038l-1.9-1.447c-.275 3.578-6.613 7.345-9.112 8.839a86.413 86.413 0 01-9.415 4.675c-1.692.749-.366 2.966 1.155 2.741C27.112 35.173 34.69 34 42.177 32.257c1.889-.44 1.083-3.279-.8-2.893-1.637.336-3.2.732-4.8 1.216a1.5 1.5 0 00.8 2.893q6.267-1.184 12.463-2.66a1.507 1.507 0 00-.4-2.947l-2.717.062.757 2.795a18.757 18.757 0 008.966-9.354c1.7-3.673 4.134-8.032 4.33-12.143a1.514 1.514 0 00-2.56-1.061c-4.234 5.28-6.706 11.962-11.06 17.291-1 1.231.271 3.334 1.818 2.356 4.487-2.835 6.5-7.436 9.494-11.638l-2.742-1.156a13.777 13.777 0 01-2.134 4.6c-1.109 1.586 1.491 3.087 2.59 1.514a15.631 15.631 0 002.437-5.314 1.507 1.507 0 00-2.742-1.155c-2.631 3.7-4.452 8.056-8.417 10.561l1.818 2.356c4.357-5.334 6.822-12.006 11.059-17.291l-2.561-1.06c-.144 3.019-2.457 7.205-3.681 10.014a16.358 16.358 0 01-8.129 8.893 1.511 1.511 0 00.757 2.8l2.717-.062-.4-2.946q-6.2 1.479-12.463 2.66l.8 2.893c1.6-.484 3.163-.88 4.8-1.216l-.8-2.893C33.893 31.11 26.312 32.28 18.712 33.4l1.156 2.741c6.262-2.772 19.387-7.966 20.013-16.1a1.508 1.508 0 00-1.9-1.446c-2.6.9-3.817 2.61-5.714 4.512-3.036 3.042-7.639 6.9-12.062 7.445l1.061 2.56c2.178-2.329 5.881-3.653 8.453-5.589a60.968 60.968 0 006.953-6.161c2.28-2.335 4.409-4.814 6.466-7.346 1.808-2.225 3.379-5.948 5.473-7.7l-2.356-.3.5.8c1.023 1.632 3.62.128 2.59-1.514z"/><path class="a" d="M3.527 40.922c6.387.379 11.853-4.346 17.038-7.489l-2.2-1.694c-.445 1.4-3.1 2.928-4.231 3.681a31.725 31.725 0 01-4.851 2.585c-1.764.775-.239 3.361 1.514 2.591 3.291-1.446 9.265-4.288 10.461-8.06a1.516 1.516 0 00-2.2-1.694c-4.6 2.787-9.911 7.413-15.524 7.08-1.929-.115-1.922 2.885 0 3z"/><path class="a" d="M7.665 34.324a2.776 2.776 0 00-1.245-.134 1.524 1.524 0 00-1.473 1.3 1.48 1.48 0 001.075 1.646 26.734 26.734 0 005.2.283c1.921-.1 1.933-3.1 0-3a22.785 22.785 0 01-4.407-.175l-.4 2.946a.474.474 0 01.447.026c1.84.6 2.628-2.3.8-2.892zM23.163 37.5l10.077-1.423-.8-2.893-13.421 3.127c-1.907.444-1.073 3.212.8 2.893 7.234-1.235 14.45-2.513 21.55-4.391a1.5 1.5 0 00-.8-2.893c-7.1 1.878-14.316 3.157-21.551 4.391l.8 2.893 13.423-3.125c1.928-.449 1.056-3.155-.8-2.893l-10.076 1.423c-1.9.269-1.093 3.16.8 2.893z"/><path class="a" d="M44.548 29.374a12 12 0 00-3.4 1.7 1.512 1.512 0 00.757 2.795 17.064 17.064 0 005.891-1.058l-1.156-2.742c-5.8 2.622-9.009 8.606-14.85 11.126l1.822 2.354 9.246-8.144c1.258-1.108-.445-3.386-1.817-2.356a80.692 80.692 0 01-17.212 9.926l1.156 2.742 1.376-.894c1.347-.875.517-3.37-1.156-2.742A49.214 49.214 0 0110.794 45.2l.4 2.947c5.243-1.409 10.091-3.782 15.207-5.547 4.664-1.608 9.526-2.293 13.949-4.568 1.718-.883.2-3.473-1.514-2.59-4.653 2.392-9.957 3.024-14.835 4.847-4.538 1.7-8.912 3.7-13.6 4.965-1.6.428-1.326 3.055.4 2.946a52.115 52.115 0 0015.209-3.228l-1.156-2.742-1.376.9c-1.339.869-.491 3.433 1.155 2.741a83.657 83.657 0 0017.922-10.232l-1.818-2.356-9.247 8.144c-1.387 1.222.382 2.976 1.818 2.356 5.865-2.53 9.062-8.511 14.85-11.126 1.536-.693.442-3.322-1.156-2.741a14.977 14.977 0 01-5.093.951l.757 2.795 2.68-1.4c1.785-.682 1.01-3.584-.8-2.892z"/><path class="a" d="M38.386 39.773a18.825 18.825 0 006.806-5.155c1.215-1.459-.738-3.517-2.121-2.121l-3.073 3.1a1.5 1.5 0 002.121 2.121l3.073-3.1-2.121-2.118a16.889 16.889 0 01-6.2 4.686c-1.76.784-.236 3.37 1.514 2.59zM13.755 57.672q.338-.072.679-.119l-.4.053c.142-.018.285-.034.429-.046a1.609 1.609 0 001.06-.439 1.5 1.5 0 00-1.06-2.561 12.177 12.177 0 00-1.508.22 1.511 1.511 0 00-1.043 1.845 1.535 1.535 0 001.846 1.047z"/><path class="b" d="M71.054 5.2a3.361 3.361 0 011.608-1.03l-.134-.648a3.373 3.373 0 00-1.543 2.368l.448.175a4.7 4.7 0 01.321-1.216c.076-.183-.007-.6-.277-.517a1.031 1.031 0 00-.6.884 7.56 7.56 0 00-.036 1.684l.471-.1a2.8 2.8 0 01-.018-1.882c.087-.184-.092-.777-.352-.508a1.637 1.637 0 00-.241 1.583 2.749 2.749 0 00.839 1.522c.177.146.351-.068.367-.24q.115-1.275.142-2.543c.009-.405-.411-.518-.51-.092a5.139 5.139 0 00-.138 2.071 2.719 2.719 0 00.33.889 3.665 3.665 0 01.512.876l.377-.464a2.814 2.814 0 01-.818-1.568l-.493.222q.15.664.239 1.34l.417-.389a4.386 4.386 0 01-.585-.978c-.062-.144-.209-.245-.348-.129a.5.5 0 00-.078.528l.777 2.056a.231.231 0 00.284.166c.138-.054.168-.242.173-.368a1.939 1.939 0 01.088-.484l-.453-.079c.014.1.054.432-.03.51-.059.055-.207-.079-.268-.1a1.092 1.092 0 00-.676-.019l.207.68.359-.281c.171-.133.159-.749-.142-.7a.943.943 0 00-.657.41c-.137.188-.078.624.195.651a.315.315 0 00.2-.036l-.265-.644a.751.751 0 00.787 1.147c.334 0 .319-.753-.018-.755l-.947-.007.141.694a4.694 4.694 0 011.065-.8c.258-.141.2-.833-.146-.708l-.224.08c-.257.091-.184.524-.041.674a1.105 1.105 0 00.924.406c.364-.1.356-.665.347-.955l-.464.108a2.588 2.588 0 00.7 1.4l.165-.658a.614.614 0 00-.733.3l.338-.008-.028-.08c-.014-.136-.069-.366-.25-.361l-.495.013c-.331.008-.245.542-.106.7a1.67 1.67 0 00.768.5c.332.106.357-.553.105-.675a2.148 2.148 0 01-.642-.476l-.107.7.5-.024-.239-.264a1.259 1.259 0 00.172.492.191.191 0 00.338-.008.224.224 0 01.274-.112c.354.1.317-.5.165-.659a1.763 1.763 0 01-.47-.979c-.062-.411-.473-.249-.464.107.005.229.051.266-.176.178a1.067 1.067 0 01-.392-.282l-.041.674.224-.078-.146-.708a5.16 5.16 0 00-1.182.866c-.164.161-.17.69.141.694l.946.014-.023-.759a1.883 1.883 0 01-.2 0c-.13-.072-.2-.022-.2.149.088-.164.074-.8-.262-.638l-.063.008.194.651a.453.453 0 01.3-.186l-.143-.7-.356.288c-.21.17-.13.768.206.68.27-.071.42.053.646.155a.349.349 0 00.435-.112 1.818 1.818 0 00.215-1.362c-.035-.267-.361-.375-.453-.078a3.387 3.387 0 00-.148.865l.457-.2-.77-2.063-.426.4a5.158 5.158 0 00.664 1.137c.262.339.445-.161.416-.388q-.085-.676-.232-1.343c-.032-.146-.149-.336-.325-.267s-.193.336-.168.489a3.7 3.7 0 001.061 2.048c.259.256.419-.289.377-.464-.143-.595-.631-.991-.8-1.566a3.725 3.725 0 01.095-1.847l-.51-.092q-.01 1.157-.11 2.321l.367-.24a1.764 1.764 0 01-.55-.878c-.08-.255-.236-.683-.022-.907l-.352-.509a3.713 3.713 0 000 2.46c.1.4.493.267.472-.11a11.3 11.3 0 01-.015-1.235c.013-.254.027-.551.308-.641l-.279-.516a5.431 5.431 0 00-.356 1.391c-.016.14.011.372.171.426s.258-.121.277-.251a2.729 2.729 0 011.229-1.895c.219-.14.205-.748-.134-.648a2.744 2.744 0 00-1.662 1.328c-.066.116.03.535.188.35zM46.733 3.02a5.737 5.737 0 001.972.219l-.126-.619a1.043 1.043 0 01-1.093.137 1.116 1.116 0 01-.373-.2l.076.256v-.057l-.111.318a1.2 1.2 0 01.481-.174 3.807 3.807 0 01.5-.084 9.024 9.024 0 011.078-.035 7.833 7.833 0 002.1-.154 2.018 2.018 0 00.223-.04q.127.022.009-.174a.305.305 0 01-.126.072 1.711 1.711 0 01-.495.069 9.853 9.853 0 01-1.2.01c-.4-.018-.8-.05-1.193-.084a2.528 2.528 0 01-1.026-.257l.018.732a2.585 2.585 0 011.385-.126c.355.068.41-.654.111-.715a3 3 0 00-1.647.112c-.285.1-.192.613.018.733a2.98 2.98 0 001.333.286c.509.031 1.019.06 1.528.051.247 0 .494-.016.739-.042a1.752 1.752 0 00.664-.149.746.746 0 00.257-1c-.241-.407-.76-.154-1.122-.1a9.177 9.177 0 01-1.377.051 9.933 9.933 0 00-1.369.043 4.266 4.266 0 00-.623.124c-.188.053-.452.108-.561.29-.326.543.37.9.788 1.007a1.3 1.3 0 001.241-.329c.122-.122.156-.67-.126-.619a5.312 5.312 0 01-1.886 0c-.218-.039-.254.389-.069.443z"/><path d="M46.225 3a64.968 64.968 0 01-13.956 17.77 83.6 83.6 0 01-19.157 12.498c-4.154 2-8.714 3.336-12.686 5.679a1.089 1.089 0 00.043 1.761c4.6 2.066 9.339 1.628 13.878-.344a213.943 213.943 0 0014.186-6.813 33.522 33.522 0 0010.5-8.432 67.129 67.129 0 007.183-11.1 40.282 40.282 0 003.341-6.723c.52-1.692-.053-4.35-2.262-4.273-.923.032-.84 2.143.051 2.05 1.909-.2.768 2.061.356 2.861q-.648 1.261-1.313 2.513c-.889 1.679-1.8 3.348-2.764 4.984a48.31 48.31 0 01-6.878 9.339c-5.981 6.13-14.263 9.111-21.821 12.784a21.454 21.454 0 01-6.9 2.406 14.829 14.829 0 01-7.28-1.021L.788 40.7c3.577-2.258 7.794-3.465 11.615-5.262a94.551 94.551 0 0010.421-5.705A71.212 71.212 0 0040.086 14.7a46.97 46.97 0 006.792-10.975c.172-.4-.315-1.348-.653-.73z"/><path d="M46.412 2.166a.56.56 0 00-.3.834c.135.191.457.271.661.356.267.111.541.206.815.3s.548.183.825.267c.184.055.379.152.547.015a.562.562 0 00.127-.566.706.706 0 00-.155-.289c-.086-.1-.171-.228-.168-.024l-.07.287a3.612 3.612 0 00.365 0 3.221 3.221 0 01.428.022 6.748 6.748 0 01.784.155c.405.1 1.012.349 1.408.15a2.153 2.153 0 00.807-1.129A.965.965 0 0052.2 1.3a3.011 3.011 0 00-1.414-.127c-.558.018-1.115.072-1.67.132-.529.057-1.068.1-1.592.188a2.266 2.266 0 00-1.235.555c-.271.262-.065 1.16.338.818a2.19 2.19 0 011.2-.366c.5-.065.993-.129 1.489-.195a19.834 19.834 0 011.613-.161 7.78 7.78 0 01.808-.011 2.064 2.064 0 00.223.032q.168.1.026-.16a2.301 2.301 0 01-.05.139 2.044 2.044 0 01-.318.548c-.19.231-.4.161-.671.109-.474-.091-.942-.221-1.423-.272-.346-.037-1.015-.1-1.215.262a.654.654 0 00.017.625.724.724 0 00.133.169.742.742 0 00.123.084c.1.086.11.03.025-.166l.11-.232c.064-.05-.125-.053-.187-.069l-.334-.089q-.36-.1-.717-.21c-.219-.067-.436-.14-.656-.206a1.175 1.175 0 01-.327-.1l-.084-.031a1.567 1.567 0 01.1-.165c.044-.068.024-.277-.1-.235zM6.286 39.083a45.758 45.758 0 006.54-2.4q3.237-1.326 6.387-2.862a58.8 58.8 0 0011.12-6.89 97.268 97.268 0 0010.017-9.656 34.635 34.635 0 007.2-10.546c.11-.277-.2-.7-.374-.316A38.007 38.007 0 0139.518 17.3a94.668 94.668 0 01-9.775 9.3 61.583 61.583 0 01-11.454 6.939c-1.974.952-3.985 1.818-6 2.685a63.014 63.014 0 00-6.046 2.664c-.072.041-.06.221.041.2z"/><path class="b" d="M77.405 27.648a.356.356 0 01-.092-.075.847.847 0 00-.025-.086 1.33 1.33 0 00-.045-.083l-.025.406a.479.479 0 01.522.062 1.663 1.663 0 01.4.53l.177-.5a1.125 1.125 0 01-.678-.549l-.284.457a4.336 4.336 0 01.593 1.061 5.092 5.092 0 01.158.531.932.932 0 00.311.55c.194.137.311-.121.309-.284-.007-.392 0-.787-.02-1.178-.011-.208-.093-.459-.326-.5a.4.4 0 00-.423.278.764.764 0 00.03.671c.118.185.316.154.49.077a2.091 2.091 0 00.831-.64.572.572 0 00-.05-.758c-.2-.151-.416-.019-.555.137l.23.559.233-.263-.324-.361a7.225 7.225 0 00-.2 1.129 1.408 1.408 0 00.31 1.107.156.156 0 00.217-.006.363.363 0 00.1-.284l-.121-1.151c-.012-.113-.044-.268-.166-.314s-.21.059-.241.157a3.64 3.64 0 00-.162 1.173c0 .125.069.329.225.326s.213-.215.209-.337a2.587 2.587 0 01.109-.839l-.41-.151.124 1.151.316-.29c0 .006-.031-.043-.039-.056s-.01-.017 0 0l-.024-.054c-.026-.056 0 .029-.011-.037a.93.93 0 01-.017-.089c.01.066 0-.022 0-.037v-.166c0-.039.006-.064.01-.095a9.392 9.392 0 01.191-.97.412.412 0 00-.085-.341.161.161 0 00-.239-.02l-.233.262a.435.435 0 00-.066.449c.045.107.19.23.3.11a.444.444 0 01.1-.1s.045-.017.027-.009h.024c-.062.028-.092-.031-.091-.176l.025-.166c-.014.057-.088.117-.14.166a1.955 1.955 0 01-.229.188 2.09 2.09 0 01-.242.141c-.041.02-.083.041-.126.057.034-.013-.052.022-.042.013-.024.022-.015-.046.028.029l.058.142c-.018-.063-.008 0-.008.022 0-.029 0-.039 0 0l-.016.018c0-.011.041-.01.041-.01.027.012.017 0-.029-.031-.025-.037-.035-.156-.033-.046 0 .075 0 .15.005.225l.017.9.304-.28a.2.2 0 01-.1-.132c-.018-.047.01.037 0-.011l-.015-.059-.031-.126a5.117 5.117 0 00-.205-.628 4.428 4.428 0 00-.624-1.086.169.169 0 00-.3.007.447.447 0 00.011.45 1.451 1.451 0 00.872.665.182.182 0 00.216-.141.422.422 0 00-.039-.358 1.7 1.7 0 00-.585-.656.7.7 0 00-.78.044c-.13.1-.1.477.1.479.06 0 .078-.033.129-.049a.378.378 0 01.117.013c.071.008.066-.136.025-.164z"/><path class="b" d="M79.195 27.783a1.508 1.508 0 00.547-1.005 6.894 6.894 0 00.144-1.389 2.607 2.607 0 00-.232-1.407c-.264-.5-.562-.978-.862-1.453l-.316.509a5.506 5.506 0 01.672 1.233 6.272 6.272 0 01.232 1.486 2.921 2.921 0 01-.181 1.495c-.21.492-.478.977-.643 1.487a.441.441 0 00.067.425.17.17 0 00.285-.032 12.64 12.64 0 00.757-1.7 3.836 3.836 0 00.188-1.744 6.762 6.762 0 00-.285-1.678 6.642 6.642 0 00-.776-1.484.188.188 0 00-.329.008.487.487 0 00.013.5c.231.375.475.74.72 1.105a3.1 3.1 0 01.308.487 1.752 1.752 0 01.074.717 6.958 6.958 0 01-.087 1.126 10.6 10.6 0 01-.372 1.17c-.01.037 0 .183.076.14z"/><path class="a" d="M51.374 31.371a37.189 37.189 0 004.164-1.989c1.44-.807.459-3.38-1.156-2.741a14.99 14.99 0 00-2.848 1.377c-1.688 1.009-.212 3.382 1.514 2.591a33.279 33.279 0 0010.264-7.294 1.511 1.511 0 00-1.459-2.507c-3.423 1.111-6.552 2.359-9.124 4.947a1.506 1.506 0 001.817 2.356 56.436 56.436 0 009.46-7.392c1.007-.975-.026-3.1-1.46-2.507a41.723 41.723 0 00-6.547 3.349 1.5 1.5 0 001.514 2.59 35.368 35.368 0 008.838-6.706c1.261-1.306-.322-3-1.817-2.356a26.094 26.094 0 00-6.462 4c-1.386 1.148.379 3.056 1.818 2.356a30.842 30.842 0 009.877-7.545c.907-1.033.06-3.049-1.459-2.507a14.33 14.33 0 00-6.406 4.293c-1.07 1.225.3 3.307 1.818 2.356a33.013 33.013 0 004.134-2.584c2.946-2.548-.9.54-1.658 1.366a96.557 96.557 0 01-8.3 7.985l2.121 2.121c3.882-4.429 7.612-9.949 12.535-13.274a1.5 1.5 0 00-1.514-2.59c-9.58 4.923-15.469 14.175-25.29 18.753-5.8 2.7-12.142 3.049-18.362 4.23-7.032 1.337-13.858 2.451-20.824.151v2.9c9.365-1.4 18.744-1.314 28.052-3.318 7.373-1.587 16.047-3.352 22.031-8.182 1.309-1.056-.175-2.7-1.459-2.507l-1.209.185 1.155 2.742 1.662-.841-1.818-2.359a33.183 33.183 0 01-8.241 6.264 1.512 1.512 0 00.757 2.8 8.924 8.924 0 004.678-.938l-1.514-2.59-1.061.609c-1.7.978-.209 3.379 1.515 2.59a34.323 34.323 0 009.93-6.846c1.383-1.352-.739-3.473-2.121-2.121a32.27 32.27 0 01-9.324 6.377l1.517 2.585 1.06-.609c1.706-.979.21-3.378-1.514-2.59l-3.164.528.757 2.8a35.664 35.664 0 008.848-6.734 1.506 1.506 0 00-1.817-2.355l-1.662.84c-1.639.83-.395 2.979 1.156 2.742l1.21-.185-1.46-2.507c-6.251 5.045-16.644 6.738-24.372 8.138-8.091 1.465-16.283 1.381-24.387 2.59-1.577.235-1.267 2.476 0 2.893 5.6 1.844 11.251 1.735 17.028.831 6.673-1.045 14.366-1.6 20.708-3.9a43.677 43.677 0 0013.505-7.774c5.2-4.49 9.313-9.392 15.547-12.6l-1.514-2.59c-5.182 3.5-9.056 9.08-13.142 13.743a1.5 1.5 0 002.121 2.121 95.87 95.87 0 008.9-8.64c1.023-1.142 3.579-3.182 3.172-5.1-1.018-4.8-8.479 1.387-9.881 2.264l1.817 2.356a11.442 11.442 0 015.083-3.523l-1.46-2.507a28.772 28.772 0 01-9.275 7.075l1.818 2.355a23.153 23.153 0 015.854-3.529l-1.818-2.356a32.938 32.938 0 01-8.231 6.237l1.514 2.59a36.429 36.429 0 015.831-3.046L61.879 18.6a52.788 52.788 0 01-8.852 6.922l1.818 2.356c2.2-2.212 4.9-3.233 7.8-4.175l-1.46-2.507a30.9 30.9 0 01-9.652 6.824l1.514 2.591 2.132-1.076-1.156-2.741a21.734 21.734 0 01-3.447 1.686c-1.763.722-.991 3.626.8 2.893z"/><path d="M5.476 33.83c-2-.445-2.248 2.344-1.354 3.545A3.859 3.859 0 006.6 38.684c1.518.307 3.076.5 4.612.687a62.845 62.845 0 0019.126-1.118 159.667 159.667 0 0018.292-4.394 41.691 41.691 0 0013.838-7.511 49.449 49.449 0 0011.344-13.603 1.393 1.393 0 00-.035-1.439c-2.957-3.855-7.609-.78-10.369 1.566-3.551 3.019-6.848 6.344-10.584 9.142a33.017 33.017 0 01-13.833 5.948c-5.254 1.038-10.549 1.91-15.833 2.775-5.921.969-11.854 1.9-17.814 2.6-1.043.122-.927 2.457.057 2.314 10.164-1.482 20.339-2.883 30.437-4.782 4.82-.906 9.592-1.884 13.872-4.395a62.471 62.471 0 0010.42-8.28c1.828-1.683 3.632-3.441 5.607-4.952 1.927-1.474 5.287-2.925 7.13-.476l-.035-1.44c-4.624 7.824-11.322 14.7-19.6 18.628-4.777 2.267-10.019 3.382-15.133 4.615a111.292 111.292 0 01-16.8 3.011 52.082 52.082 0 01-8.962.027 28.413 28.413 0 01-4.957-.854c-.433-.117-3.35-1.015-1.872-1.6.421-.167.451-1.22-.033-1.328z"/><path d="M70.323 9.833c.2-.512.378-1.2 1.023-1.284.154-.019.19-.223.163-.346a12.152 12.152 0 00-.654-1.572 2.134 2.134 0 01.016-1.644 2.341 2.341 0 012.753-1.251l-.017-.7a4.475 4.475 0 00-1.567 1.4 2.72 2.72 0 00-.121 2.124c.105.365.247.718.357 1.082a3.052 3.052 0 01.133.612c.019.2-.026.394-.009.59a.808.808 0 00.143.407c.091.127.238.206.3.356.157.387-.3.645-.625.661-.339.017-.319.776.019.761a1.206 1.206 0 001.141-1.193 1.446 1.446 0 00-.243-.878c-.045-.063-.1-.111-.149-.171-.069-.088-.056-.048-.075-.16-.033-.193 0-.413-.025-.614-.114-.8-.585-1.534-.636-2.349-.055-.906.817-1.5 1.5-1.934.191-.121.264-.626-.018-.7a2.744 2.744 0 00-3.228 1.505 4.07 4.07 0 00.714 3.936l.067-.453c-.793.205-1.007 1.074-1.018 1.792 0 .034.038.063.055.021zM10.067 35.865c8.544.244 17.151-1.3 25.384-3.472 4.26-1.122 8.466-2.44 12.629-3.879a58.525 58.525 0 005.749-2.2 33.634 33.634 0 004.73-2.888 29.6 29.6 0 004.765-4.413c1.582-1.689 3.181-3.363 4.738-5.075.255-.279.018-1.189-.337-.818-1.355 1.415-2.681 2.858-4.019 4.288a41.835 41.835 0 01-4.094 4.167 34.092 34.092 0 01-10.163 5.49 153.522 153.522 0 01-24.907 6.857A121.83 121.83 0 0110.058 35.5c-.161.009-.152.357.009.362z"/><path class="a" d="M13.912 58.031a24.419 24.419 0 008.97-2.526l-1.817-2.356-1.56 1.151c-1.721.724-1.081 3.528.8 2.893l5.4-1.823-1.156-2.742-3.877 1.142-.234 1.818 2.581-1.458-1.155-2.742-4.737 2.389c-1.491.752-.435 3.38 1.156 2.741A114.222 114.222 0 0129.77 52.6l-1.158-2.737a36.459 36.459 0 01-4.678 2.689c-1.645.8-.395 3 1.156 2.742a38.418 38.418 0 004.866-1.123l-1.154-2.742a18.476 18.476 0 01-3.662 1.638c-1.793.65-1.054 3.507.8 2.893q5.575-1.846 11.03-4c1.759-.694 1.048-3.547-.8-2.892l-4.952 1.756c-1.806.641-1.034 3.534.8 2.893a20.989 20.989 0 004.394-2.095 1.507 1.507 0 00-1.156-2.742l-6.4 1.394 1.156 2.742a100.474 100.474 0 017.451-3.1 1.5 1.5 0 00-.8-2.893l-6.309 1.542.8 2.893c2.76-1.066 5.54-2.016 8.375-2.861l-1.156-2.742-5.006 2.966a1.506 1.506 0 001.145 2.743 45.974 45.974 0 005.641-1.932l-1.46-2.507-1.976 1.6c-1.2.971.1 2.9 1.46 2.507a36.078 36.078 0 0011.97-5.987c1.233-.934.6-3.345-1.156-2.741l-13.09 4.491.8 2.893L55.396 42c1.721-.726 1.072-3.543-.8-2.893a23.412 23.412 0 00-8.458 5.053 1.51 1.51 0 001.459 2.507 26.5 26.5 0 0013.115-9.481c.92-1.218-.851-2.827-2.052-2.053a70.374 70.374 0 01-10.908 5.793c-1.728.727-1.049 3.572.8 2.893 5.709-2.1 10.784-4.783 14.356-9.852 1.045-1.484-1.139-2.836-2.356-1.818a21.763 21.763 0 00-4.9 5.785c-.719 1.21.8 2.982 2.052 2.052a43.324 43.324 0 0010.8-11.523 1.511 1.511 0 00-2.052-2.052 36.01 36.01 0 00-6.668 5.546c-1.12 1.186.367 3.37 1.818 2.356a34.95 34.95 0 0010.452-11.3 1.5 1.5 0 00-2.59-1.514 31.287 31.287 0 01-9.376 10.228l1.818 2.356A32.943 32.943 0 0167.955 29l-2.052-2.053A38.932 38.932 0 0156.18 37.4l2.052 2.052a19.657 19.657 0 014.434-5.178l-2.354-1.821c-3.09 4.385-7.652 6.666-12.563 8.473l.8 2.893a74.956 74.956 0 0011.624-6.1l-2.052-2.052a22.762 22.762 0 01-11.319 8.11l1.46 2.507A19.533 19.533 0 0155.396 42l-.8-2.893-18.7 7.883c-1.72.726-1.077 3.536.8 2.893L49.791 45.4l-1.156-2.742a33.749 33.749 0 01-11.254 5.685l1.459 2.507 1.977-1.6c1.131-.916-.093-3.076-1.46-2.507a45.974 45.974 0 01-5.645 1.928l1.156 2.742 5.006-2.966a1.506 1.506 0 00-1.155-2.741 111.785 111.785 0 00-8.376 2.861 1.5 1.5 0 00.8 2.893l6.309-1.542-.8-2.893a109.617 109.617 0 00-8.167 3.4c-1.608.746-.426 3.086 1.156 2.741l6.4-1.394-1.156-2.741a12.206 12.206 0 01-3.676 1.789l.8 2.893 4.953-1.757-.8-2.892q-5.461 2.157-11.029 4l.8 2.893a33.306 33.306 0 004.379-1.937 1.507 1.507 0 00-1.156-2.742 38.4 38.4 0 01-4.861 1.122l1.156 2.742a36.641 36.641 0 004.677-2.69 1.507 1.507 0 00-1.156-2.741 113.62 113.62 0 00-11.486 3.914l1.156 2.741 4.736-2.389c1.491-.752.435-3.381-1.156-2.741-1.421.571-2.908 1.024-3.906 2.229a1.539 1.539 0 00-.234 1.818c1.79 2.546 5.7.911 7.975-.065 1.556-.665.447-3.283-1.156-2.741l-5.4 1.823.8 2.893a5.77 5.77 0 002.882-1.923 1.507 1.507 0 00-1.818-2.356 19.871 19.871 0 01-7.453 2.117c-1.922.088-1.933 3.089 0 3z"/><path class="a" d="M67.391 30.575a17.829 17.829 0 002.342-2.711c.489-.747.642-1.78 1.3-2.391 1.423-1.311-.7-3.428-2.121-2.121a7.208 7.208 0 00-1.439 2.41 10.827 10.827 0 01-2.208 2.692 1.5 1.5 0 002.121 2.121zM58.579 8.494a6.32 6.32 0 00-1.5 3.466 27.428 27.428 0 01-3.312 8.769 33.482 33.482 0 01-5.828 7.355c-1.361 1.238-2.76 2.078-3.759 3.638-3.3 5.155-8.987 8.127-14.817 9.924-5.451 1.68-12.239 5.02-17.925 3.4l.358 2.742a36.53 36.53 0 018.716-2.319c3.26-.566 6.667-2.473 9.666-3.8 6.707-2.973 12.815-6.783 17.36-12.631 1.153-1.484-.831-3.61-2.121-2.122q-4.194 4.836-8.489 9.578A1.513 1.513 0 0038.384 39c4.551-1.027 5.323-5.228 7.846-8.735 2.8-3.887 7.559-5.623 9.518-10.182a1.508 1.508 0 00-2.356-1.818 13.6 13.6 0 00-4.345 5.659c-.6 1.413 1.142 3.24 2.356 1.818 3.634-4.256 5.4-9.533 8.444-14.168 1.065-1.62-1.535-3.124-2.591-1.515-2.892 4.4-4.525 9.521-7.974 13.56l2.356 1.818a12.07 12.07 0 013.874-5.051l-2.356-1.818c-1.612 3.753-5.255 5.361-7.93 8.213-2.483 2.646-3.876 8.476-7.641 9.326l1.459 2.507q4.3-4.744 8.489-9.578l-2.121-2.122c-4.906 6.314-11.678 10.08-18.955 13.1a36.133 36.133 0 01-5.182 2.048c-1.314.312-2.759.068-4.051.343-2.391.511-4.713 1.843-6.946 2.787-1.249.527-.771 2.419.358 2.741 5.834 1.665 10.908-1.013 16.455-2.579 5.77-1.629 11.638-3.75 16.407-7.548 2.2-1.755 2.923-4.273 4.946-6.249a48.31 48.31 0 005.047-5.23 38.05 38.05 0 004.776-7.727c.971-2.214.942-6.271 2.433-7.983 1.263-1.45-.85-3.581-2.121-2.122z"/><path class="a" d="M57.278 38.486c1.671 2.477 3.938-.895 5.064-2.116a78.743 78.743 0 007.061-8.47c1.1-1.591-1.5-3.093-2.59-1.514a55.832 55.832 0 01-4.476 5.549c-1.31 1.454-2.691 3.494-4.271 4.646l1.156-.151.647.537c-1.074-1.592-3.675-.092-2.591 1.515z"/><path class="b" d="M59.45 1.262l-.093.217c-.048.115-.013.385.155.382a.446.446 0 00.363-.2c.044-.053.078-.111.119-.166a.414.414 0 01.108-.131c.1 0 .13-.037.089-.1.03-.151-.086.154-.091.177a1.362 1.362 0 00-.043.263 1.554 1.554 0 00.092.619l.291-.468-.564-.59c-.116-.123-.26.021-.3.13-.275.69.345 1.083.715 1.553a3.949 3.949 0 01.8 1.815c.023.138.144.311.3.249s.177-.312.157-.456c-.142-1.026-.831-1.944-.793-2.995l-.408.271a10.389 10.389 0 01.785 1.3 1.463 1.463 0 01.14 1.388l.417.249a4.759 4.759 0 00-.619-2.448c-.162-.29-.431.066-.408.272l.116 1.043.36-.33a5.973 5.973 0 01-1.1-1.4.2.2 0 00-.344.008.515.515 0 00.013.524 5.137 5.137 0 01.579 3.422.433.433 0 00.152.436.214.214 0 00.3-.16 7.534 7.534 0 00.307-2.546l-.481.111a5.221 5.221 0 01.119 2.209c-.069.305.329.712.461.279a14.293 14.293 0 00.388-1.607l-.451.1c.07.131-.1.522-.139.675l-.2.8.21-.192a2.394 2.394 0 00-1.811.365c-.163.136-.161.732.14.691a10.526 10.526 0 012.32-.048c.311.027.245-.549.1-.678a2.3 2.3 0 00-.234-.214l-.381-.065a4.211 4.211 0 00.745 1l-.014-.616a.742.742 0 01-.546.154c-.336-.023-.335.78.019.779a1.141 1.141 0 00.784-.309.47.47 0 00-.015-.63 3.461 3.461 0 01-.6-.823.193.193 0 00-.341.008 1.075 1.075 0 00.363 1.356l.1-.678a14.731 14.731 0 00-2.32.029l.14.69a2.225 2.225 0 011.567-.247c.1.008.189-.109.21-.192l.311-1.237a1.362 1.362 0 00.012-1.01c-.146-.271-.4-.186-.452.1a12.429 12.429 0 01-.337 1.428l.461.28a6.217 6.217 0 00-.134-2.609c-.083-.413-.5-.266-.481.112a6.385 6.385 0 01-.246 2.169l.454.276a6.239 6.239 0 00-.724-4.141l-.331.532a6.4 6.4 0 001.2 1.517c.258.242.366-.274.348-.428l-.118-1.043-.4.369a3.724 3.724 0 01.471 1.929c-.006.21.252.535.417.249.722-1.256-.242-2.7-.95-3.73-.2-.287-.4.07-.408.272-.043 1.141.656 2.091.818 3.19l.46-.207A4.812 4.812 0 0060.981 3a4.19 4.19 0 00-.472-.667c-.075-.088-.578-.5-.541-.6l-.3.131.567.581c.087.089.21.025.267-.059a.48.48 0 00.024-.409c-.134-.389.355-.959-.138-1.255s-.612.509-.929.641l.215.31.033-.253c.022-.166-.153-.39-.253-.154z"/><path d="M10.923 45.287c.273.8-1.942 1.411-1.733 2.426.1.5.783.59 1.187.716a15.287 15.287 0 003.465.59 21.925 21.925 0 006.855-.474 77.7 77.7 0 007.688-2.555c4.62-1.667 9.529-2.8 13.584-5.705a29.223 29.223 0 005.457-5.474c1.77-2.158 3.6-4.258 5.433-6.367a37.823 37.823 0 004.723-6.321 33.285 33.285 0 002.712-6.7 70.54 70.54 0 00.89-3.349 19.219 19.219 0 00.761-3.5c.1-2.139-2.194-2.384-3.68-1.477-1.979 1.208-2.853 3.944-3.953 5.869a72.344 72.344 0 01-4.131 6.388 62.262 62.262 0 01-10.669 11.569c-4.769 3.963-10.286 6.389-16.041 8.557q-4.414 1.665-8.89 3.167c-2.159.724-5 1.224-5.772 3.71a1.611 1.611 0 00.335 1.7.71.71 0 001.107-.474c.549-1.833 3.962-2.307 5.5-2.826q3.667-1.238 7.3-2.583a65.881 65.881 0 0013.217-6.089c7.742-5.036 14.1-12.526 18.655-20.5a56.66 56.66 0 001.556-2.894 11.414 11.414 0 011.925-3.328 2.76 2.76 0 011.469-.788c.093-.012.711-.056.808.068-.066-.084-.15.429-.151.435a25.417 25.417 0 01-.881 3.755A30.706 30.706 0 0153.292 25.7c-3.151 3.677-6.329 7.4-9.827 10.749-3.393 3.251-7.667 4.781-12.046 6.231-5.06 1.677-10.029 4.151-15.337 4.931a17.443 17.443 0 01-3.7.146 18.012 18.012 0 01-1.763-.216 8.438 8.438 0 01-1.033-.2c.089.341.178.044.3-.033.391-.251 1.4-1.552 1.078-2.078-.028-.046-.052.029-.044.054z"/><path d="M14.77 56.109A123.079 123.079 0 0039.035 48.6q6.068-2.553 11.871-5.679a39.27 39.27 0 009.74-6.84A70.277 70.277 0 0068.72 25.4c.213-.322-.136-1.1-.442-.639a75.506 75.506 0 01-7.095 9.606A36.684 36.684 0 0151.32 41.7a146.276 146.276 0 01-22.857 10.019c-4.512 1.537-9.117 2.85-13.733 4.036-.131.034-.1.382.04.354z"/><path class="b" d="M74.791 16.6l.722-.131-.064-.563c-.289.173-.577.342-.855.533-.184.126-.09.71.177.583a14.563 14.563 0 011.648-.79 5.706 5.706 0 011.849-.209l-.016-.654c-1.707.08-3.57.188-4.958 1.307-.224.181-.142.922.236.776a29.056 29.056 0 013.534-1.095l-.158-.765a12.858 12.858 0 00-3.747 1.667c-.233.169-.078.929.224.738a14.08 14.08 0 012.085-1.097l-.161-.782a10.572 10.572 0 00-2.06 1.4c-.188.174-.11.935.224.739a26.088 26.088 0 013.341-1.657l-.162-.782c-1.51.9-3.259 1.463-4.512 2.744l.29.7a15.539 15.539 0 011.832-1.841l-.278-.674a5.866 5.866 0 00-.661.747c-.13.174-.056.779.264.643q.885-.377 1.771-.749l-.151-.732q-.549.324-1.1.646c-.268.157-.176.9.152.733l.483-.251c.274-.142.212-.858-.151-.734q-.948.324-1.877.7l.211.7a15.153 15.153 0 001.217-1.214c.188-.211.064-.933-.269-.653l-1.285 1.082.268.652q.264-.314.524-.63a.5.5 0 00.076-.518c-.057-.128-.212-.259-.342-.127l-.285.29c-.207.21-.033.916.263.638.206-.194.41-.388.619-.579s.04-.891-.259-.627q-1.053.925-2.044 1.918l.317.59a3.907 3.907 0 01.722-.8l-.307-.57a4.032 4.032 0 01-1.586 1.221l.247.6.126-.182c.109-.156.093-.529-.119-.6l-.11-.038.018.7a2.762 2.762 0 00.377-.122l-.2-.655a.523.523 0 00-.01.72c.238.209.706.059.963-.029l-.281-.525.008-.012c-.129.148-.185.589.073.66a1.238 1.238 0 001.073-.157c.357-.251.5-.676.808-.977l-.308-.572a2.355 2.355 0 00-.487 1.629c.018.159.211.377.369.217a5.213 5.213 0 00.437-.513L73.102 19a2.081 2.081 0 00.068.5c.046.164.155.31.2.471l.018-.293-.029.086.145-.179c-.163.09-.368-.4-.431-.487a.973.973 0 00-.453-.386c-.221-.086-.311.229-.311.38a.826.826 0 00.432.732.444.444 0 01.222.261.551.551 0 00.259.313c.192.114.3-.244.291-.355a2.451 2.451 0 011.429-2.313c.249-.119.228-.7-.082-.717a2.676 2.676 0 00-1.094.249q-.627.228-1.247.475l.2.664a5.273 5.273 0 013.441-1.673l-.082-.717-.671.4c-.2.119-.246.776.082.717a6.549 6.549 0 00.893-.223c.29-.095.2-.815-.145-.7a5.766 5.766 0 01-.766.194l.081.718.671-.4c.2-.119.249-.769-.081-.717a5.659 5.659 0 00-3.681 1.779c-.132.163-.155.806.2.665s.737-.288 1.108-.424a2.721 2.721 0 011.106-.271l-.081-.718a3.218 3.218 0 00-1.758 3.027l.349-.32c-.029-.019-.114-.3-.189-.382a4.983 4.983 0 00-.383-.273l-.312.38c.411.153.443.922.977.906.733-.021.132-1.064.122-1.374-.008-.239-.23-.524-.43-.257a4.374 4.374 0 01-.339.394l.369.216a1.547 1.547 0 01.37-.9c.124-.192-.029-.855-.308-.572-.46.467-.69 1.288-1.511 1.064l.073.66a.851.851 0 00.156-.252c.073-.18-.008-.62-.281-.525-.17.058-.481.164-.654.06l.172.248-.013-.059-.1.41.038-.038c.157-.159.135-.792-.2-.655a2.515 2.515 0 01-.377.123c-.258.063-.2.616.017.7l.109.04-.12-.6-.128.18c-.116.162-.055.73.247.6a4.613 4.613 0 001.8-1.407c.155-.2-.009-.812-.306-.569a4.434 4.434 0 00-.83.9c-.14.2.037.877.318.591q.987-1 2.035-1.942l-.259-.627c-.206.191-.415.379-.623.568l.263.638.288-.283-.266-.645q-.264.311-.526.623c-.176.21-.07.936.268.652l1.286-1.081-.269-.653a14.651 14.651 0 01-1.218 1.211c-.188.167-.133.833.211.7q.93-.37 1.876-.7l-.151-.734-.484.252.152.733 1.1-.647c.26-.151.2-.879-.151-.732q-.887.369-1.774.735l.264.643a4.819 4.819 0 01.565-.613c.231-.213.056-.951-.278-.674a15.313 15.313 0 00-1.844 1.811.547.547 0 00-.083.565c.061.143.231.281.373.139 1.233-1.233 2.912-1.79 4.384-2.666.274-.163.22-.939-.162-.782a26.408 26.408 0 00-3.337 1.639l.224.739a9.934 9.934 0 011.932-1.316c.283-.159.214-.939-.161-.782a13.666 13.666 0 00-2.085 1.095l.224.738a11.9 11.9 0 013.618-1.6c.318-.1.221-.854-.158-.765a37.17 37.17 0 00-3.546 1.039l.236.776a8.883 8.883 0 014.672-1.384c.288-.028.276-.66-.016-.654a5.377 5.377 0 00-1.787.407c-.607.219-1.229.37-1.822.629l.128.617c.288-.186.56-.391.837-.594.16-.118.091-.619-.159-.522l-.706.275c-.143.055-.127.45.048.419z"/><path d="M11.512 55.172c-1.29 2.95 3.2 3.605 5.08 3.592a47.533 47.533 0 0013.53-2.591 102.35 102.35 0 0018.314-7.455 57.263 57.263 0 007.476-4.695 43.22 43.22 0 006.848-7.17c4.055-4.876 9.021-9.524 10.6-15.878a1.194 1.194 0 00-.517-1.289c-1.958-.885-3.628.659-4.7 2.152a61.757 61.757 0 01-4.138 5.345 56.631 56.631 0 01-10.442 9c-8.311 5.609-17.765 9.215-27.272 12.227-2.725.863-5.468 1.68-8.15 2.674-1.3.482-2.608.977-3.864 1.565a10.763 10.763 0 00-1.922 1.067c-.382.289-.657.676-1.025.987-.657.555-.2 2.525.754 1.829.348-.255.621-.6.983-.825a11.671 11.671 0 011.7-.665c1.141-.472 2.278-.943 3.438-1.367 2.323-.851 4.676-1.619 7.029-2.383 4.668-1.517 9.307-3.117 13.838-5.01 8.44-3.526 16.55-8.139 23.14-14.54a51.411 51.411 0 004.691-5.225c.763-.975 1.461-1.99 2.166-3.007.806-1.161 1.917-2.359 3.458-1.775l-.515-1.289c-1.008 5.618-4.45 9.929-8.112 14.1A54.859 54.859 0 0150.628 45.07a103.57 103.57 0 01-15.522 7.283 73.5 73.5 0 01-14.254 4.315 26.489 26.489 0 01-5.874.443c-1.342-.078-3.725.106-3.392-1.895.008-.048-.043-.109-.071-.044z"/><path class="a" d="M75.412 35.5l.455-.562a1.67 1.67 0 00.439-1.061 1.528 1.528 0 00-.439-1.061 1.51 1.51 0 00-1.055-.437 1.46 1.46 0 00-1.06.439l-.455.562a1.126 1.126 0 00-.311.483 1.139 1.139 0 00-.129.578 1.529 1.529 0 00.44 1.061 1.508 1.508 0 001.06.439 1.463 1.463 0 001.055-.441z"/><path class="a" d="M74.288 35.3a13.051 13.051 0 003.477-4.109 1.5 1.5 0 00-2.59-1.514c-3.347 5.2-9.124 7.888-14.27 11.012a1.512 1.512 0 00.757 2.795c4.885-.1 9.266-4.18 12.681-7.326l-2.122-2.121c-8.024 9.244-21.123 16.712-33.316 17.7l.757 2.8c7.356-3.855 15.45-5.925 22.85-9.7 1.541-.787.459-3.162-1.156-2.741a40.375 40.375 0 00-5.986 2.092l1.514 2.59 5.88-2.978c1.757-.889.214-3.332-1.514-2.59l-21.545 9.25 1.514 2.591a44.537 44.537 0 016.318-2.625c1.807-.621 1.074-3.443-.8-2.893l-13.051 3.835.8 2.893 15.283-5.686c1.785-.664 1.044-3.532-.8-2.892a132.235 132.235 0 01-21.167 5.955l.8 2.893 5.7-1.543c1.9-.513 1.072-3.211-.8-2.892a60.485 60.485 0 01-19.844.112 1.5 1.5 0 00-.8 2.893 19.039 19.039 0 007.147.788l-.4-2.946a5.382 5.382 0 01-3.471.532v3c8.724.293 17.365.427 26-1.066l-.8-2.893-5.171 1.218.8 2.893c8.81-2.687 16.167-8.581 25.011-11.153a1.5 1.5 0 00-.8-2.893c-8.852 2.576-16.206 8.469-25.008 11.153a1.5 1.5 0 00.8 2.893l5.172-1.218c1.905-.449 1.073-3.216-.8-2.893-8.351 1.444-16.763 1.242-25.2.959-1.94-.065-1.915 2.883 0 3a9.368 9.368 0 004.268-.639c1.482-.561 1.411-3.018-.4-2.947a17.256 17.256 0 01-6.35-.681l-.8 2.893a65.193 65.193 0 0021.438-.113l-.8-2.892-5.7 1.542c-1.9.514-1.071 3.211.8 2.893a132.123 132.123 0 0021.166-5.956l-.8-2.892-15.274 5.685c-1.778.661-1.087 3.446.8 2.893l13.054-3.834-.8-2.893a49.489 49.489 0 00-7.034 2.927c-1.75.918-.211 3.331 1.514 2.591L62.764 43.8l-1.514-2.59-5.883 2.977c-1.755.887-.215 3.341 1.514 2.59a34.867 34.867 0 015.269-1.79l-1.155-2.741c-7.392 3.775-15.483 5.844-22.847 9.694a1.511 1.511 0 00.757 2.8c13.126-1.066 26.792-8.622 35.438-18.581a1.5 1.5 0 00-2.122-2.121C69.544 36.5 65.56 40.4 61.662 40.48l.757 2.8c5.7-3.459 11.65-6.345 15.346-12.088l-2.59-1.514a10.391 10.391 0 01-3.008 3.5c-1.476 1.249.655 3.362 2.121 2.121z"/><path d="M11.869 51.173c-.573 1.7.684 3.079 2.2 3.7a12.562 12.562 0 003.216.621q2.426.3 4.864.475a81.636 81.636 0 0017.5-.459 69.45 69.45 0 0015.822-4.13 51.89 51.89 0 007.059-3.44 30.753 30.753 0 005.925-4.146c3.889-3.806 7.754-7.655 10.615-12.326a1.255 1.255 0 00-.334-1.685c-.551-.32-.655-1.321-1.065-1.8a1.391 1.391 0 00-1.727-.43 11.518 11.518 0 00-2.441 1.807 86.72 86.72 0 00-2.77 2.4c-1.765 1.583-3.517 3.193-5.416 4.617a36.335 36.335 0 01-6.488 3.733 110.587 110.587 0 01-29.667 9.164 34.675 34.675 0 01-8.564.229 39.365 39.365 0 00-8.786.031c-1.032.136-.938 2.446.057 2.313a34.88 34.88 0 017.6-.147 39.763 39.763 0 007.612.151 90.473 90.473 0 0014.708-3.074 120.015 120.015 0 0014.342-5.011 44.674 44.674 0 0012.224-7.076c1.967-1.7 3.813-3.539 5.795-5.223.547-.464 1.1-.947 1.683-1.36.552-.387.781-.635 1.185-.048.459.667.629 1.3 1.412 1.685l-.335-1.685a33.733 33.733 0 01-8.349 10.377 58.846 58.846 0 01-5.477 3.855 53.749 53.749 0 01-5.946 3.3c-9.249 4.418-19.7 6.206-29.885 6.582-2.921.108-5.85.08-8.767-.1-2.23-.14-7.292.181-7.785-2.89 0-.01-.013-.014-.017 0zM59.233 6.965a.276.276 0 01-.074-.45.713.713 0 01.482-.143.646.646 0 00.555-.308 2.969 2.969 0 00.349-1.483 3.721 3.721 0 00-.352-1.631 3.636 3.636 0 00-.408-.666c-.216-.279-.468-.526-.273-.9a1.236 1.236 0 01.721-.537c.147-.049.237-.1.317.04a2.039 2.039 0 01.1.519A4.243 4.243 0 0061.328 3a2.367 2.367 0 01.2 1.86c-.109.527-.441 1.188.028 1.633.174.166.39.288.568.45a1.393 1.393 0 00.117.114l.044.057q.231-.594.045-.428a1.42 1.42 0 00-.186.095c-.231.1-.81.33-1.02.22-.357-.187-.469.682-.133.851s.926-.087 1.23-.21c.448-.18.76-.536.5-1.038a1.789 1.789 0 00-.535-.554c-.058-.045-.26-.146-.3-.215-.059-.117.091-.473.118-.6a3.932 3.932 0 00-.034-2.272 6.187 6.187 0 00-.543-.918 3.649 3.649 0 01-.354-1.201c-.052-.265-.1-.69-.385-.812-.256-.109-.683.085-.9.21a1.609 1.609 0 00-.79 1.715 2.249 2.249 0 00.555.9 2.85 2.85 0 01.544 2.358c-.041.19-.095.5-.283.607s-.435.035-.63.133a.647.647 0 00-.376.648c.025.24.164.438.423.4.014 0 .017-.029.005-.036zm11.746 12.59a.346.346 0 01-.2 0c-.095-.027-.324-.262-.293-.383.025-.1.324-.151.41-.175a2.006 2.006 0 00.688-.329 10.642 10.642 0 001.107-1.149 6.573 6.573 0 013.05-1.72 6.484 6.484 0 011.727-.192 1.85 1.85 0 01.953.155c-.075-.055.014-.087-.1-.067a1.661 1.661 0 00-.194.058c-.182.056-.364.114-.545.178a12.763 12.763 0 00-3.281 1.737 1.931 1.931 0 00-1 1.355 1.426 1.426 0 00.2.767c.073.136.2.251.1.373-.082.092-.345.1-.453.116-.37.047-.337.876.021.83.636-.081 1.179-.428 1.053-1.153-.05-.287-.352-.568-.354-.839 0-.338.654-.713.894-.886a12.234 12.234 0 012.241-1.278q.559-.246 1.139-.437c.331-.108.674-.178.768-.562.393-1.6-2.612-1.031-3.368-.824a7.452 7.452 0 00-3.668 2.461 2.26 2.26 0 01-.993.741c-.34.107-.646.182-.769.555-.2.6.337 1.242.877.7.007-.007.009-.039-.007-.036z"/><path d="M76.912 28.367a.563.563 0 01.224-.932.935.935 0 01.674.114c.258.128.548.458.845.5.526.069.691-.812.771-1.18a4.461 4.461 0 00-.009-1.89 5.893 5.893 0 00-.762-1.676c-.1-.167-.256-.509.1-.507.211 0 .384.251.494.395a3.117 3.117 0 01.486.914 4.184 4.184 0 01-.267 2.412 9.828 9.828 0 00-.33 2.257c-.012.41.225 2.013-.619 1.651-.384-.165-.489.721-.134.86a.991.991 0 001.238-.735 11.513 11.513 0 00.121-2.39c.168-1.6 1.034-3.136.325-4.725-.219-.492-.629-1.282-1.219-1.39s-.876.583-.814 1.076a2.164 2.164 0 00.406.9 3.589 3.589 0 01.487 1.034 3.478 3.478 0 01.117 1.075c-.013.281-.054 1.01-.326 1.163-.129.073-.131.039-.263-.041-.1-.059-.2-.124-.3-.182a1.8 1.8 0 00-.539-.226.94.94 0 00-.878.272.955.955 0 00.106 1.437c.093.079.119-.129.066-.187zM58.443 9.536a88.963 88.963 0 01-5.01 10.005 55.074 55.074 0 01-6.841 8.933 49.751 49.751 0 01-19.369 12.9c-4.718 1.7-9.484 3.76-14.471 4.491-.339.05-.318.808.019.771 4.374-.478 8.517-2.281 12.621-3.765a54.441 54.441 0 0011.867-5.627 55.46 55.46 0 0015.822-16 42.207 42.207 0 005.514-11.578c.031-.111-.078-.294-.152-.13zM16.397 52.668c4.281 1.621 8.891.671 13.265-.03 4.682-.751 9.281-1.887 13.93-2.8a52.293 52.293 0 0011.5-3.962c3.042-1.374 6.1-2.531 9.034-4.138a28.107 28.107 0 004.519-2.849 37.114 37.114 0 004.93-5.263c.242-.3-.015-1.214-.34-.826a30.283 30.283 0 01-8.368 7.462c-2.848 1.6-5.736 2.826-8.717 4.141-3.439 1.517-6.8 3.2-10.472 4.08-2.288.551-4.619.9-6.914 1.424-2.244.508-4.462 1.089-6.725 1.513-2.556.478-5.127.928-7.7 1.3a20.016 20.016 0 01-7.924-.14c-.046-.012-.053.081-.015.095z"/><path class="b" d="M46.768 2.809c.007 0 .007-.018 0-.018s-.007.018 0 .018z"/></svg>