<svg xmlns="http://www.w3.org/2000/svg" width="22.292" height="21.058"><defs><style>.a{fill:#a0d177}.b{fill:#d8ebc8}</style></defs><path class="a" d="M6.26 14.704a7.715 7.715 0 004.466-1.123 9.259 9.259 0 001.7-1.375l.908-1.175q.542-.8-.141.276L10.63 12.8c3.344-1.3 5.974-4.1 4.766-8l-7.142 7.14a10.293 10.293 0 012.546 1.494 6.618 6.618 0 006.609 1.286l-6.555-8.529a38.338 38.338 0 00-1.4 3.274c-.808 2.119.391 4.84 2.08 6.1a5.919 5.919 0 006.449.454 11.307 11.307 0 001.808-1.325l-8.211-8.21c-.651.812-1.219 1.639-1.786 2.5q.627-.639-.087.076.688-.589-.174-.108L14 8.371a7.131 7.131 0 01-1.631-.332c.013.135 1.167.883.226-.078-1.606-1.646-3.433-1.99-5.633-2.241l2.93.792-.424-.231v10.027l.341-.259c2.493-1.894 3.8-5.006 2.083-7.944C10.456 5.65 6.46 4.114 3.948 6.022l-.341.259C1.92 7.563.732 9.055.732 11.295a5.8 5.8 0 002.875 5.013 10 10 0 001.811.816q3.561.68-.876-.791a6.886 6.886 0 001.882 1.618 11.332 11.332 0 004.221 1.573A7.874 7.874 0 0017.5 17.6a8.873 8.873 0 001.129-1.123c-.254.3 2.055-2.895 1.162-1.78 1.958-2.445 2.389-5.822 0-8.21-2.409-2.41-5.768-1.982-8.211 0l.542-.492 8.529 6.557q-.27.47.232-.5a5.888 5.888 0 00-.453-6.448c-1.317-1.653-3.955-2.949-6.1-2.081l-.519.21h3.087l1.027.613q-.711-.562-1.438-1.1a14.441 14.441 0 00-1.369-.9 21.846 21.846 0 00-3.771-1.6C7.172-.644 2.927 3.782 4.2 7.885l.092.3.585-4.474-.184.3 2.082-2.087q1.847-.774-.618.264-.757.552-1.472 1.153-.588.738-1.147 1.5A4.42 4.42 0 016.26 3.092C3.224 2.86.321 5.929.454 8.898a5.949 5.949 0 005.806 5.806z"/><path class="a" d="M2.287 7.629v.024a4.37 4.37 0 00.5 2.237 4.349 4.349 0 001.2 1.868 4.345 4.345 0 001.869 1.2 4.378 4.378 0 002.237.5l1.543-.208a5.784 5.784 0 002.564-1.492l.908-1.175a5.776 5.776 0 00.793-2.93v-.024a4.378 4.378 0 00-.5-2.237 4.354 4.354 0 00-1.2-1.869 4.349 4.349 0 00-1.868-1.2 4.37 4.37 0 00-2.237-.5l-1.544.207a5.813 5.813 0 00-2.565 1.493l-.908 1.175a5.781 5.781 0 00-.792 2.931z"/><path class="a" d="M3.346 9.665c3.86 0 3.867-6 0-6s-3.867 6 0 6zm11.408-2.667c3.861 0 3.867-6 0-6s-3.867 6 0 6zM5.152 18.081a10.044 10.044 0 003.891 1.613 14.886 14.886 0 004.772.482c1.607-.217 2.483-2.279 2.1-3.691-.477-1.734-2.079-2.313-3.691-2.095l-.41.055h1.595c-1.773-.28-3.724-.507-5.225-1.545a3.029 3.029 0 00-4.1 1.076 3.062 3.062 0 001.077 4.1z"/><path class="b" d="M9.842 19.693l-2.135-5.722c-1.569-1.234-3.191-1.109-3.852.436a4.161 4.161 0 00-.281 1.754 6.657 6.657 0 004.349 3.45zm8.958-3.379c-1.235 2.118-3.986 3.2-6.63 3.746"/><path class="b" d="M9.37 17.962l.43.571a1.163 1.163 0 01.23.694v.02a1.156 1.156 0 001.156 1.156h2.606a1.522 1.522 0 00.733-.175c.744-.406.474-1.074.753-1.616.238-.464.693-.582 1.151-.746a14.612 14.612 0 001.562-.625 11.073 11.073 0 001.372-.813c.757-3.083-1.265-6.288-2.965-3.375-1.235 2.118-1.648 3.584-4.292 4.133.032.058-2.769.72-2.736.776"/><path d="M.743 4.404a3.032 3.032 0 01.845.03c.422.059.611.405.859.71a7.54 7.54 0 00.855.948 7.57 7.57 0 00.908.654 3.63 3.63 0 011.5 1.4 7.665 7.665 0 01.372 1.272l.367 1.441c.052.205.206.474.459.377s.29-.481.238-.691l-.4-1.625A7.7 7.7 0 006.3 7.453a4.421 4.421 0 00-1.73-1.725 8.7 8.7 0 01-.982-.7c-.373-.325-.641-.747-1-1.085a1.261 1.261 0 00-1.021-.372 1.5 1.5 0 00-.885.535c-.057.061-.078.319.061.3z"/><path d="M4.391 6.412a4.909 4.909 0 01.884-.609 1.323 1.323 0 011.15.021 10.967 10.967 0 001.087.466 3.269 3.269 0 001.242.08c.849-.1 1.644-.43 2.482-.575.724-.126 1.689-.023 1.714.892.007.248.228.517.434.258.539-.676-.039-1.723-.7-2.066-.975-.505-2.14.012-3.1.279a4.314 4.314 0 01-1.7.2 13.094 13.094 0 01-1.514-.552C5.329 4.535 4.7 5.393 4.277 6.2c-.037.071 0 .312.114.212z"/><path d="M5.461 2.465c.224-.126.445-.01.658.071.137.052.281.076.417.133A.8.8 0 017 3.087a6.568 6.568 0 01.063.711 1.031 1.031 0 00.476.716c.512.285 1.133.037 1.675.181.52.138.784.648 1.024 1.086a.294.294 0 00.512-.01.781.781 0 00-.02-.786 2.771 2.771 0 00-1.165-1.3 2.151 2.151 0 00-.917-.144c-.172 0-.345.01-.517 0-.1-.005-.308 0-.386-.068s-.059-.356-.082-.502a1.153 1.153 0 00-.405-.783 1.2 1.2 0 00-.711-.22.912.912 0 00-.483.122c-.192.116-.369.317-.611.306-.041 0-.024.092.008.074z"/><path d="M2.112 4.012c.169-.015.269.107.437.119a2.279 2.279 0 001.025-.371 14.789 14.789 0 003.1-1.835A3.76 3.76 0 0110.476.909c1.217.482 2.3 1.091 3.638.674.263-.082.217-.725-.082-.718a6.4 6.4 0 01-2.261-.21 12.477 12.477 0 00-1.68-.607 4.253 4.253 0 00-3.266 1.07 10.679 10.679 0 01-1.534 1.145c-.552.287-1.136.516-1.711.752a3.665 3.665 0 00-1.136.57c-.128.119-.162.343-.336.4-.01 0-.008.03 0 .029z"/><path d="M11.8 3.158c.15-.052.327-.082.471-.148a2.465 2.465 0 00.4-.269c.29-.211.568-.427.838-.661a3.39 3.39 0 011.865-.922 1.5 1.5 0 011.573 1.113c.219.585.306 1.163.91 1.473.315.162.34-.526.169-.673a2.907 2.907 0 01-.543-.772 5.215 5.215 0 00-.536-.813 2.2 2.2 0 00-1.583-.741 3.332 3.332 0 00-1.882.554 5.594 5.594 0 00-.9.7c-.133.124-.273.242-.4.369-.169.162-.293.362-.459.529-.066.066-.056.314.081.265zm9.355 3.286c.807 2.514-.066 5.633-1.354 7.845a13.288 13.288 0 01-2.45 3.033c-.64.6-1.364 1.057-2.047 1.592a4.238 4.238 0 01-2.144 1.008c-2 .26-3.915-.479-5.851-.822-.207-.037-.161.392-.029.461a13.129 13.129 0 005.369 1.492 4.449 4.449 0 002.475-.553 19.976 19.976 0 002.755-1.9 13.026 13.026 0 003.709-5.408c.8-2.178 1.165-4.954-.271-6.949-.117-.162-.192.1-.162.2z"/><path d="M13.193 20.307c-4.181.078-8.147-2.658-10.7-5.8A8.219 8.219 0 01.82 8.877a24.268 24.268 0 00.1-2.89C.892 5.629.7 5.241.892 4.931c.206-.34.686-.361.973-.62.176-.159.155-.663-.138-.68a1.553 1.553 0 00-1.558 1.04 3.335 3.335 0 00.049 1.333 10.465 10.465 0 01-.109 1.767 10.475 10.475 0 001.059 6.6 14.634 14.634 0 004.99 4.8 9.454 9.454 0 007.042 1.282c.061-.013.064-.148 0-.146zm-.142-13.178c.116 0 .111-.264-.007-.264s-.111.264.007.264z"/><path d="M21.575 7.759c.513-.618-.041-2.122-.355-2.731a1.767 1.767 0 00-1.02-1.017c-.579-.176-1.191.186-1.722.05-.347-.088-.554-.564-.914-.723a1.645 1.645 0 00-1.409.059 2.423 2.423 0 00-.967.927 2.607 2.607 0 01-.479.784 2.884 2.884 0 01-.78.344 2.473 2.473 0 00-1.122.755c-.416.519-.577.9-1.222 1.176a4.865 4.865 0 00-1.224.6c-.464.378-.478 1.028-.879 1.384-.327.292-.841.319-1.194.593a1.516 1.516 0 00-.548 1.122 16.676 16.676 0 00.192 3.87 8.508 8.508 0 001.359 3.762 6.96 6.96 0 003.145 2.257c.475.191.6-.9.163-1.049a5.576 5.576 0 01-3.157-2.327 8.8 8.8 0 01-1-4.178 30.044 30.044 0 01-.02-1.123c0-.295-.106-.952.087-1.2.256-.327.943-.3 1.287-.493.439-.246.52-.592.732-1.008.284-.556.912-.618 1.44-.833a2.4 2.4 0 001.139-.845 2.383 2.383 0 011.213-1.069 2.594 2.594 0 001.142-.7c.425-.517.4-1.276.964-1.686a1.073 1.073 0 01.989-.188c.372.129.378.456.662.625.4.236.9.043 1.341.164.79.218 1.031.844 1.385 1.493.174.319.359 1.092.742 1.215a.028.028 0 00.03-.007z"/><path d="M17.322 3.091l.046.131c.006.016.014.076.007.022 0 .018 0 .036.008.054.012.084.025.167.04.249a.9.9 0 00.086.273c.029.053.057.106.087.158.043.076.089.152.136.226s.091.138.142.2a1.19 1.19 0 00.264.242 3.139 3.139 0 00.28.177c.036.02.072.041.11.058a.571.571 0 00.209.04.367.367 0 00.289-.192.928.928 0 00.111-.441.831.831 0 00-.1-.391.74.74 0 00-.311-.3l.105.064a2.213 2.213 0 01-.346-.264 1.187 1.187 0 00-.16-.131c-.057-.038-.113-.079-.168-.121s-.1-.081-.153-.124a.379.379 0 00-.148-.1c-.025-.007-.051-.01-.077-.015a1.4 1.4 0 00-.156-.034s-.05-.009-.007.007a.19.19 0 01-.037-.026l-.08-.059a.108.108 0 00-.163.036.3.3 0 00-.015.249zM4.069 16.686a1.5 1.5 0 00.688-.633 3.021 3.021 0 00.348-1.182c.062-.412.117-.827.144-1.244a4.676 4.676 0 00-.083-1.561c-.057-.2-.2-.562-.48-.53-.346.039-.473.448-.466.749a3.2 3.2 0 00.073.467c0 .014.023.148.016.1s.008.085.009.1a6.077 6.077 0 01.009.633c0 .053 0 .106-.007.159a.484.484 0 010 .053c-.009.12-.019.24-.03.359-.032.359-.075.712-.14 1.066a3.754 3.754 0 01-.257 1.037c-.058.118-.058.534.179.437z"/><path d="M1.805 11.379a4.723 4.723 0 00.37 1.812c.219.571.445 1.132.646 1.709a15.9 15.9 0 00.66 1.7c.126.262.259.52.4.776.146.275.372.627.725.628.279 0 .353-.377.361-.58a3.434 3.434 0 00-.735-1.747c-.268-.471-.56-.931-.8-1.419a8.028 8.028 0 01-.562-1.6 6.241 6.241 0 00-.578-1.6c-.205-.367-.482.1-.485.323zm15.343-4.018c-.574.634-.166 1.654-.1 2.406a11.448 11.448 0 01-.076 2.629 9.778 9.778 0 01-2.133 4.819.771.771 0 00-.117.792c.079.183.337.41.523.193a11.569 11.569 0 002.507-4.918 9.956 9.956 0 00.276-2.756 23.987 23.987 0 00-.417-2.9c-.033-.179-.261-.486-.459-.269z"/><path d="M10.478 11.829a5.588 5.588 0 002.178 3.088 9.337 9.337 0 003.381 1.721c.5.134.585-.914.159-1.021A8.8 8.8 0 0113 14.082a11.013 11.013 0 01-1.29-1.151 8.158 8.158 0 00-1.174-1.169c-.042-.03-.061.037-.055.067zm2.435-1.873a6.027 6.027 0 00.591 1.423 5.521 5.521 0 001.008 1.182 6.469 6.469 0 001.248.891 3.936 3.936 0 001.407.579c.295.034.426-.416.439-.621a.768.768 0 00-.35-.763c-.207-.1-.441-.151-.658-.233s-.408-.164-.6-.261a8.208 8.208 0 01-1.1-.677 12.792 12.792 0 01-.983-.83 14.457 14.457 0 01-.9-.814c-.068-.068-.114.077-.1.124zm4.765 2.142c.125.269.482.192.718.159a2.675 2.675 0 00.785-.2 4.771 4.771 0 00.721-.431 2.757 2.757 0 00.318-.253 2.8 2.8 0 00.3-.375.6.6 0 00.008-.59c-.083-.145-.236-.233-.383-.106a7 7 0 01-1.239.914c-.236.127-.457.273-.7.382a1.446 1.446 0 00-.385.181c-.086.072-.2.2-.138.319zm-.932 3.597a4.342 4.342 0 001.41-.25 3.083 3.083 0 00.609-.341 2.8 2.8 0 00.589-.545.549.549 0 00.082-.563c-.06-.145-.23-.277-.372-.138-.166.163-.346.308-.516.467s-.376.311-.572.461a5.624 5.624 0 01-1.247.756c-.053.022-.049.155.017.153z"/></svg>