<svg xmlns="http://www.w3.org/2000/svg" width="115.633" height="90.348"><path d="M96.19 34.341c4.348 1.537 8.487 1.804 10.8.695a3.589 3.589 0 001.94-2.038 3.77 3.77 0 00-.535-3.356c-1.192-1.907-3.839-3.797-7.214-5.188 3.95-2.913 6.941-6.828 5.182-9.642s-6.554-1.848-10.89.409c.247-3.648-.28-6.855-1.473-8.763a3.76 3.76 0 00-2.746-1.94c-3.757-.452-6.188 5.296-6.855 10.828a17.672 17.672 0 002.064 9.96l-6.681 4.176a13.908 13.908 0 00-18.24-2.97c-.14.101-14.037 10.415-27.318 21.296C6.283 70.695 8.167 73.709 9.29 75.508s3.007 4.811 35.824-10.274c15.6-7.17 30.96-15.142 31.23-15.288a13.875 13.875 0 005.194-17.634l6.68-4.175a17.632 17.632 0 007.97 6.204z" fill="#3a3939"/><path d="M73.954 47.495a742.708 742.708 0 01-18.123 9.108l-4.69-7.504a1.665 1.665 0 00-2.294-.53 1.665 1.665 0 00-.53 2.295l4.497 7.194a563.31 563.31 0 01-15.62 7.22l-3.354-5.366a1.665 1.665 0 00-2.295-.53 1.665 1.665 0 00-.53 2.295l3.094 4.95c-11.454 4.952-20.15 8.016-22.606 7.472.74-3.082 10.966-12.555 24.518-23.664l4.962 7.94a1.665 1.665 0 002.295.529 1.665 1.665 0 00.53-2.295l-5.185-8.294A709.123 709.123 0 0152.11 37.678l6.176 9.883a1.665 1.665 0 002.294.53 1.665 1.665 0 00.53-2.295l-6.344-10.15q2.76-2.105 5.539-4.185a1.459 1.459 0 00.076.204l7.403 11.845a1.665 1.665 0 002.294.53 1.665 1.665 0 00.53-2.295l-7.402-11.843a1.631 1.631 0 00-.31-.328 10.538 10.538 0 0114.292 3.474 10.523 10.523 0 01-3.233 14.447z" stroke="#3a3939" stroke-linejoin="round" fill="#e26d1e" stroke-width="1.169"/><path d="M90.829 7.825a1.11 1.11 0 01.35.402c.761 1.218 1.32 4.178.854 8.047a10.8 10.8 0 01-.409 1.874 1.663 1.663 0 00.664 1.873 1.664 1.664 0 001.985-.095 10.717 10.717 0 011.127-.823c4.453-2.783 7.686-2.916 8.132-2.546.169.612-1.367 3.46-5.82 6.243a10.682 10.682 0 01-1.27.665 1.667 1.667 0 00-.962 1.736 1.665 1.665 0 001.381 1.423 10.946 10.946 0 011.89.47c3.657 1.292 6.065 3.1 6.827 4.318a2.162 2.162 0 01.225.466c-.404.51-3.579 1.066-8.502-.675-3.795-1.339-6.28-4.801-6.947-5.833a1.6 1.6 0 00-.307-.348 1.621 1.621 0 00-.18-.431c-.628-1.06-2.641-4.827-2.156-8.841.624-5.213 2.55-7.81 3.118-7.925z" fill="#6caf1e" stroke-linecap="round" stroke-width="1.5" stroke="#3a3939" stroke-linejoin="round"/></svg>