<svg xmlns="http://www.w3.org/2000/svg" width="51.421" height="93.616"><defs><style>.a{fill:#3a3939}.b{fill:#dba065}</style></defs><path class="a" d="M51.334 69.131a71.392 71.392 0 00-3.056-13.882c-.757-2.6-1.543-5.3-2.111-7.941a119.45 119.45 0 01-2.112-18.142c-.117-1.825-.236-3.685-.384-5.606-.386-5.01-1.587-12.152-7.545-16.318a12.362 12.362 0 00-3.436-1.625 8.586 8.586 0 00-1.135-2.951C30.404.894 28.437-.005 25.706-.005s-4.7.9-5.849 2.674a8.58 8.58 0 00-1.127 2.946 12.349 12.349 0 00-3.437 1.624c-5.95 4.168-7.153 11.312-7.538 16.327-.148 1.921-.265 3.78-.383 5.6a119.47 119.47 0 01-2.117 18.142c-.569 2.643-1.354 5.336-2.113 7.939A71.17 71.17 0 00.087 69.13a23.13 23.13 0 005.735 17.614c4.827 5.249 12.049 7.672 19.889 6.626a27.546 27.546 0 003.619.246 21.753 21.753 0 0016.269-6.87 23.137 23.137 0 005.735-17.615z"/><path class="b" d="M43.004 84.793c-4.087 4.447-10.288 6.451-17.043 5.487a1.876 1.876 0 00-.249-.018 1.857 1.857 0 00-.249.018c-6.756.965-12.954-1.042-17.043-5.487a19.6 19.6 0 01-4.817-14.932 68.424 68.424 0 012.926-13.192c.777-2.663 1.579-5.418 2.175-8.185a122.362 122.362 0 002.184-18.654c.116-1.81.235-3.655.381-5.56.527-6.828 2.449-11.182 6.05-13.7 1.786-1.251 4.684-1.91 8.4-1.91 3.7 0 6.6.659 8.38 1.91 3.6 2.518 5.526 6.872 6.052 13.7.146 1.905.265 3.751.379 5.561a122.344 122.344 0 002.185 18.654c.593 2.769 1.4 5.523 2.175 8.189a68.628 68.628 0 012.925 13.189 19.582 19.582 0 01-4.811 14.93z"/><path class="a" d="M21.697 12.132a1.4 1.4 0 01-.944 1.712c-.117.043-2.786 1.111-3.859 7.108a42.267 42.267 0 00-.571 8.062 1.4 1.4 0 11-2.8 0 44.79 44.79 0 01.613-8.555c1.41-7.875 5.391-9.184 5.84-9.308a1.4 1.4 0 011.721.981zm-.083 73.574a1.4 1.4 0 01-1.4 1.293h-.108a14.571 14.571 0 01-10.07-5.037 16.128 16.128 0 01-3.638-11.911 1.4 1.4 0 112.791.23 13.343 13.343 0 002.978 9.864 11.632 11.632 0 008.156 4.055 1.4 1.4 0 011.291 1.506z"/><path class="b" d="M22.821 4.592c.188-.293.688-1.064 2.889-1.064s2.7.77 2.889 1.061a2.874 2.874 0 01.146.257 30.366 30.366 0 00-3.045-.15 29.965 29.965 0 00-3.024.15 2.425 2.425 0 01.145-.254z"/></svg>